PathFileType	3	(X/Y/Z)	E:\ViconData\BIOM9541 2025\Week 7\Wed1100\Hanif  deep squat 2-5 Squat 01.trc
DataRate	CameraRate	NumFrames	NumMarkers	Units	OrigDataRate	OrigDataStartFrame	OrigNumFrames
200.0	200.0	18	19	mm	200.0	670	1338	
Frame#	Time	C7			CLAV			RBAK			LASI			RASI			LPSI			RPSI			LTHI			LKNE			LTIB			LANK			LHEE			LTOE			RTHI			RKNE			RTIB			RANK			RHEE			RTOE			
		X1	Y1	Z1	X2	Y2	Z2	X3	Y3	Z3	X4	Y4	Z4	X5	Y5	Z5	X6	Y6	Z6	X7	Y7	Z7	X8	Y8	Z8	X9	Y9	Z9	X10	Y10	Z10	X11	Y11	Z11	X12	Y12	Z12	X13	Y13	Z13	X14	Y14	Z14	X15	Y15	Z15	X16	Y16	Z16	X17	Y17	Z17	X18	Y18	Z18	X19	Y19	Z19	
670	3.345	273.64804	858.5047	-1205.7477	139.45708	759.39722	-1192.7357	301.94406	781.65656	-1352.4283	302.41702	444.90744	-1069.756	279.02798	456.78558	-1331.329	461.73532	506.35605	-1167.5547	455.26303	502.70236	-1235.5563	218.63338	414.53983	-905.17773	113.62511	353.21234	-839.38263	214.99542	179.80482	-892.8291	301.89227	63.40456	-968.29993	318.4895	55.161163	-1028.5927	164.07635	39.180355	-930.47559	328.70624	449.95807	-1407.2913	96.511627	338.14221	-1546.3214	131.12383	263.27798	-1537.2349	286.92905	70.219406	-1434.439	308.21652	53.55616	-1359.7039	163.80334	39.811481	-1475.0852
671	3.35	273.61108	862.22314	-1205.7472	139.42557	763.11792	-1192.9434	301.99567	785.37366	-1352.4138				279.04556	460.05212	-1331.3679	461.59134	510.30405	-1167.5513	455.1196	506.67905	-1235.5212	218.00447	415.65906	-905.16724	113.18905	353.23019	-839.82227	214.88525	179.89326	-892.91046	301.92566	63.433552	-968.27014	318.48468	55.08707	-1028.4821	164.1268	39.166264	-930.61127	328.19708	452.44055	-1407.6031	96.525269	338.3425	-1545.9537	131.19975	263.43762	-1537.0103	287.01465	70.158279	-1434.5004	308.23822	53.498032	-1359.8269	163.83307	39.791393	-1475.168
672	3.355	273.58191	866.02618	-1205.7443	139.38722	766.9364	-1193.1689	302.04095	789.2533	-1352.4062	301.73044	455.17416	-1068.0415	279.10214	463.34323	-1331.304	462.7052	515.08826	-1169.1366	455.04648	510.7652	-1235.4797	217.27428	416.83011	-904.90125	112.81887	353.27209	-840.20648	214.76688	180.06665	-892.96088	301.92352	63.428089	-968.20807	318.49307	55.019611	-1028.359	164.07573	39.093952	-930.53497	327.65817	455.14639	-1407.9011	96.530678	338.54584	-1545.5299	131.28021	263.58258	-1536.7601	287.09	70.137436	-1434.5637	308.29095	53.443367	-1359.9775	163.81393	39.750679	-1475.2012
673	3.36	273.54538	870.02722	-1205.7462	139.35573	770.94	-1193.1118	302.11127	793.32349	-1352.4561				279.12469	466.86972	-1331.2606	462.48883	519.33276	-1169.0477	454.92535	515.03284	-1235.4327	216.67175	418.08734	-904.75031	112.3802	353.32208	-840.56451	214.68552	180.1537	-893.04883	301.93857	63.517467	-968.16724	318.54019	55.055328	-1028.2815	164.06776	39.11829	-930.53546	327.09479	457.93448	-1408.1808	96.556007	338.88107	-1545.186	131.37495	263.81403	-1536.5107	286.71777	70.310707	-1434.6077	308.46869	53.295723	-1359.7136	163.82635	39.786514	-1475.2644
674	3.365	273.47488	874.151	-1205.6663	139.33615	775.07007	-1193.2102	302.03918	797.52069	-1352.3898				279.14828	470.56195	-1331.2535	462.34723	523.60638	-1169.0886	454.62372	519.0744	-1235.3518	215.9834	419.22519	-904.79004	112.00138	353.36728	-841.03162	214.5403	180.22803	-893.15521	301.8989	63.606678	-968.0744	318.53897	55.095863	-1028.1927	164.03766	39.11935	-930.47693	326.50543	460.87451	-1408.5323	96.64843	339.27197	-1544.8549	131.50549	264.1283	-1536.3104	286.72614	70.409935	-1434.6644	308.51935	53.300236	-1359.761	163.81091	39.833977	-1475.2574
675	3.37	273.43399	878.41479	-1205.6307	139.30766	779.31329	-1193.269	302.02948	801.84784	-1352.3436	302.06378	462.90976	-1068.9279	279.12219	474.36969	-1331.2501	460.90195	527.24854	-1167.4752	454.41937	523.32825	-1235.3285	215.24388	420.43427	-904.61035	111.63425	353.4115	-841.47516	214.44429	180.32285	-893.29846	301.87466	63.642441	-968.01697	318.61661	55.174206	-1028.1687	164.00565	39.104065	-930.3855	325.92798	463.78345	-1408.8152	96.796753	339.57666	-1544.4573	131.66396	264.43097	-1536.139	286.79123	70.436615	-1434.7358	308.57126	53.311111	-1359.8546	163.86499	39.84716	-1475.3
676	3.375	273.44812	882.80359	-1205.6703	139.28378	783.61969	-1193.3567	302.0137	806.29236	-1352.3781	302.08356	466.42593	-1068.8204	279.14319	478.27258	-1331.2874	460.74423	531.76379	-1167.5409	454.44357	528.24915	-1235.3405	214.66934	421.75989	-904.68176	111.31754	353.56265	-841.88666	214.36446	180.42561	-893.4577	301.90515	63.646397	-968.02234	318.60434	55.090786	-1028.085	164.0376	39.092243	-930.45319	325.43155	466.66495	-1408.9845	96.96521	339.84213	-1544.0768	131.86073	264.65228	-1535.9507	286.85098	70.407043	-1434.8105	308.6442	53.229408	-1360.0156	163.88805	39.866798	-1475.3861
677	3.38	273.40802	887.26294	-1205.6802	139.2729	788.10193	-1193.5922	302.02194	810.85797	-1352.4764	302.22519	470.83698	-1068.9635	279.13022	482.20572	-1331.214	460.51859	536.25238	-1167.4941	454.20999	532.83057	-1235.2664	214.06589	422.99002	-904.62305	111.0703	353.71762	-842.37097	214.32257	180.56804	-893.63428	301.97083	63.717632	-968.07745	318.61911	55.03915	-1028.014	164.02682	39.01088	-930.43384	324.89032	469.59338	-1409.1479	97.164253	340.12622	-1543.7485	132.09023	264.86346	-1535.7771	286.9328	70.295853	-1434.8839	308.76788	53.170246	-1360.2053	163.91457	39.846981	-1475.4426
678	3.385	273.41019	891.86505	-1205.765	139.17149	792.69336	-1193.6012	301.98746	815.45795	-1352.4943	302.26028	473.69885	-1068.7107	279.10001	486.37402	-1331.2406	460.13913	540.94806	-1167.3068	454.082	537.62183	-1235.2405	213.43423	424.28619	-904.74377	110.79259	353.84335	-842.83685	214.2789	180.69606	-893.80188	301.96912	63.766533	-968.02606	318.64484	55.006687	-1027.9352	164.04288	39.016159	-930.50958	324.31485	472.62552	-1409.4061	97.429451	340.48193	-1543.402	132.36899	265.13275	-1535.6357	287.00769	70.29969	-1434.9683	308.78683	53.171719	-1360.2642	163.98044	39.851967	-1475.5083
679	3.39	273.34546	896.57764	-1205.6815	139.1628	797.34711	-1193.7183	302.03845	820.20459	-1352.5319	302.3074	478.29224	-1068.7518	279.1319	490.57126	-1331.2175	461.07477	546.57312	-1168.717	453.7717	542.19354	-1235.1727	212.81155	425.72284	-904.37592	110.59428	353.90939	-843.31818	214.27327	180.82332	-893.91943	301.94952	63.830437	-967.96204	318.66763	55.043766	-1027.8647	163.97623	39.030739	-930.43732	323.76508	475.9299	-1409.7805	97.684425	340.9335	-1543.1359	132.68973	265.46915	-1535.5277	287.08017	70.376778	-1435.0626	308.83789	53.185749	-1360.3438	163.98528	39.858925	-1475.5159
680	3.395	273.35516	901.40289	-1205.7373	139.1282	802.17157	-1193.6426	302.02319	825.10565	-1352.5405	302.26312	482.31253	-1068.6371	279.09305	494.93597	-1331.1605	460.81131	551.45758	-1168.6935	453.46198	546.80261	-1235.0797	212.15839	427.12344	-904.15234	110.40886	353.96686	-843.81604	214.24263	180.86169	-894.0907	301.96484	63.922935	-967.92725	318.7442	55.118336	-1027.8289	163.98482	39.058323	-930.45178	323.17065	479.13461	-1410.1163	98.051865	341.36923	-1542.8585	133.02927	265.88321	-1535.4261	287.09604	70.46347	-1435.1597	308.81445	53.237537	-1360.3024	163.9964	39.913776	-1475.5562
681	3.4	273.30881	906.25629	-1205.7665	139.11046	807.08099	-1193.8723	302.03369	830.02637	-1352.5901	302.13657	486.52521	-1068.4282	279.05905	499.38901	-1331.1797	459.2529	555.63971	-1167.0291	453.21194	551.83557	-1235.0035	211.53267	428.85159	-903.34473	110.26649	354.10129	-844.30054	214.24629	180.97482	-894.23523	301.9845	63.925655	-967.87384	318.69672	55.041061	-1027.6801	163.97705	39.053219	-930.4621	322.57941	482.44489	-1410.4325	98.431107	341.80521	-1542.5785	133.42538	266.1879	-1535.343	287.17654	70.429359	-1435.2352	308.87811	53.241497	-1360.411	164.01913	39.923943	-1475.627
682	3.405	273.29568	911.24768	-1205.799	139.10478	812.12347	-1193.9156	302.06458	834.95404	-1352.6443	302.00787	490.85953	-1068.3972	279.01199	503.81989	-1331.0817	458.96567	560.5285	-1167.0332	453.02838	556.94379	-1234.9705	211.01698	430.54184	-902.66467	110.17059	354.33521	-844.72894	214.22604	181.17714	-894.30499	301.95731	63.878155	-967.83228	318.75577	55.049671	-1027.7015	163.98213	39.003426	-930.52142	322.01297	485.6069	-1410.7246	98.807396	342.11996	-1542.3062	133.83197	266.49722	-1535.2689	287.26718	70.30217	-1435.3311	308.95416	53.113342	-1360.6027	164.04855	39.875694	-1475.6969
683	3.41	273.31189	916.41174	-1205.8743	139.10014	817.33582	-1194.062	302.10361	840.12415	-1352.6963	301.8544	495.41071	-1068.3926	278.85776	508.52084	-1331.1971	459.88037	566.37195	-1168.5308	452.82617	562.20667	-1234.9276	210.12117	432.83575	-901.43103	110.09995	354.57144	-845.1557	214.28903	181.33069	-894.50378	301.99188	63.901184	-967.84448	318.75833	54.947868	-1027.6505	163.98708	38.929459	-930.52057	321.42697	488.96161	-1411.1259	99.252533	342.49484	-1542.0504	134.27951	266.81018	-1535.2325	287.33127	70.235428	-1435.4149	308.86526	53.256187	-1361.0676	164.07787	39.845345	-1475.7837
684	3.415	273.30795	921.68195	-1205.9257	139.07759	822.64618	-1194.1014	302.13776	845.41022	-1352.7654	301.65546	500.02103	-1068.3073	278.78763	513.20551	-1331.1578	459.50128	571.58557	-1168.3837	452.60251	567.40381	-1234.9503	209.59924	434.32898	-901.40973	110.09335	354.83347	-845.60852	214.37344	181.49084	-894.6626	301.9722	63.93478	-967.81531	318.77112	54.906471	-1027.5852	163.96849	38.95295	-930.48627	320.81897	492.36151	-1411.4897	99.761757	342.96774	-1541.7993	134.75371	267.20383	-1535.1614	287.39963	70.247925	-1435.4911	309.11942	53.096909	-1360.9601	164.07068	39.871346	-1475.8126
685	3.42	273.34061	927.08405	-1205.9343	139.11433	828.05225	-1194.0763	302.20993	850.76239	-1352.8113	301.46844	504.66888	-1068.2753	278.67941	518.09283	-1331.2319	459.18811	576.74023	-1168.348	452.31628	572.57245	-1234.9353	209.20024	435.97311	-900.71674	110.11774	355.1138	-846.01428	214.48921	181.61533	-894.8161	301.94119	63.980007	-967.73535	318.68408	54.891739	-1027.4377	163.95087	39.002625	-930.4519	320.13959	495.92465	-1411.8792	100.32244	343.58609	-1541.6147	135.28665	267.72049	-1535.1097	287.44363	70.32283	-1435.5701	309.13565	53.153606	-1360.951	164.08984	39.932178	-1475.8605
686	3.425	273.35049	932.54218	-1205.9811	139.17625	833.5047	-1194.2762	302.27496	856.18402	-1352.8601	301.21649	509.46109	-1068.2415	278.51093	523.08539	-1331.236	457.60123	581.26129	-1166.7347	451.91611	577.70966	-1234.7721	208.67896	437.367	-901.05627	110.18858	355.33304	-846.38184	214.59866	181.77946	-894.91846	301.95999	64.014648	-967.70831	318.74936	54.924091	-1027.4435	163.98387	39.045284	-930.44531	319.64236	499.33231	-1412.2194	100.92311	344.12796	-1541.3827	135.82715	268.19254	-1535.0812	287.50458	70.334007	-1435.6466	309.20905	53.155922	-1361.0253	164.14357	39.994202	-1475.9313
687	3.43	273.38919	938.09607	-1206.0342	139.22876	839.05139	-1194.3418	302.401	861.70734	-1352.8872	300.9086	514.37506	-1068.1849	278.39151	528.01813	-1331.2617	457.41809	586.52258	-1166.9193	451.67801	582.90851	-1234.7585	208.29796	438.97937	-900.99255	110.28226	355.52896	-846.83893	214.73949	181.93935	-895.06677	302.03049	64.022362	-967.73645	318.69159	54.736549	-1027.2944	164.00809	39.001663	-930.43073	319.10916	502.7554	-1412.5536	101.59859	344.62473	-1541.1481	136.46361	268.57434	-1535.0148	287.58572	70.3172	-1435.7104	309.24411	53.117672	-1361.0919	164.18788	39.977921	-1476.0095
